<?xml version="1.0" standalone="no"?>
<!DOCTYPE svg PUBLIC "-//W3C//DTD SVG 20010904//EN"
 "http://www.w3.org/TR/2001/REC-SVG-20010904/DTD/svg10.dtd">
<svg version="1.0" xmlns="http://www.w3.org/2000/svg"
 width="500.000000pt" height="500.000000pt" viewBox="0 0 500.000000 500.000000"
 preserveAspectRatio="xMidYMid meet">
<metadata>
Created by potrace 1.11, written by Peter Selinger 2001-2013
</metadata>
<g transform="translate(0.000000,500.000000) scale(0.100000,-0.100000)"
fill="#000000" stroke="none">
<path d="M2640 4543 l0 -450 83 -12 c247 -37 485 -129 696 -268 119 -79 329
-290 410 -413 282 -424 352 -929 196 -1407 -131 -397 -428 -744 -798 -930
-151 -75 -449 -163 -556 -163 -21 0 -31 -5 -31 -15 0 -12 10 -14 48 -9 323 36
552 98 784 214 475 238 812 633 983 1152 68 208 96 373 102 608 8 284 -21 499
-98 734 -201 611 -684 1099 -1289 1300 -143 48 -337 91 -457 102 l-73 7 0
-450z"/>
<path d="M2170 4094 c-939 -141 -1595 -828 -1700 -1782 -18 -161 -8 -463 20
-621 68 -384 247 -741 528 -1050 211 -232 540 -444 847 -546 126 -41 317 -82
429 -92 l76 -6 -2 448 -3 448 -127 24 c-330 60 -607 197 -830 411 -289 278
-451 625 -490 1049 -31 343 68 718 270 1018 256 380 658 624 1135 690 26 3 47
10 47 16 0 13 -87 10 -200 -7z"/>
<path d="M1848 3223 l-108 -4 0 -54 0 -55 48 0 c75 0 120 -17 142 -53 19 -31
20 -55 20 -564 0 -314 -4 -542 -10 -557 -14 -37 -50 -56 -129 -68 l-71 -10 0
-50 0 -49 443 4 c474 4 500 7 660 62 255 88 420 317 434 605 17 332 -159 618
-445 727 -150 57 -220 65 -562 68 -173 1 -363 0 -422 -2z m680 -134 c138 -27
261 -125 327 -263 132 -275 71 -710 -121 -859 -115 -88 -363 -112 -434 -42
l-25 25 -3 579 -3 579 103 -5 c57 -2 127 -9 156 -14z"/>
</g>
</svg>
